<?xml version="1.0" encoding="UTF-8"?>
<svg version="1.1" xmlns="http://www.w3.org/2000/svg" width="22" height="20">
<path d="M0 0 C2.68407195 1.69778592 4.84711853 3.67405732 7 6 C6.70179167 9.57849992 6.25754642 10.76226484 3.5625 13.25 C-0.27126937 15.86818396 -2.31985709 16.45001374 -7 16 C-10.0603333 14.2344231 -12.50587755 12.49412245 -15 10 C-14.91921177 6.28374152 -14.40798639 4.48448383 -12 1.625 C-7.90030216 -0.59566966 -4.560314 -1.07210108 0 0 Z M-13 7 C-11.95353851 10.37193147 -10.85809586 11.0845967 -7.75 12.9375 C-4.06073167 14.35645832 -4.06073167 14.35645832 -0.6875 12.9375 C1.93654034 11.04574999 2.96269575 10.00818233 4 7 C1.68637909 4.13111007 0.18269163 3.05751403 -3.375 1.9375 C-8.31222895 2.02262464 -9.57680241 3.57680241 -13 7 Z " fill="#DEDEDE" transform="translate(15,4)"/>
<path d="M0 0 C5.64028777 2.92086331 5.64028777 2.92086331 7 7 C4.0280615 5.87548273 1.66559313 4.77706209 -1 3 C-6.30680193 2.29242641 -8.77134633 3.92461551 -13 7 C-13.66 7 -14.32 7 -15 7 C-14.70488433 4.14721517 -14.18767059 3.16421177 -12 1.25 C-7.90025802 -0.45822582 -4.38039133 -0.70825308 0 0 Z " fill="#DEDEDE" transform="translate(15,0)"/>
<path d="M0 0 C1.4540625 0.0309375 1.4540625 0.0309375 2.9375 0.0625 C3.5625 2.9375 3.5625 2.9375 3.9375 6.0625 C3.2775 6.7225 2.6175 7.3825 1.9375 8.0625 C-1.1875 7.6875 -1.1875 7.6875 -4.0625 7.0625 C-4.10504356 5.06295254 -4.10330783 3.06208364 -4.0625 1.0625 C-3.0625 0.0625 -3.0625 0.0625 0 0 Z M-1.0625 2.0625 C-1.0625 3.3825 -1.0625 4.7025 -1.0625 6.0625 C-0.4025 5.7325 0.2575 5.4025 0.9375 5.0625 C0.9375 4.0725 0.9375 3.0825 0.9375 2.0625 C0.2775 2.0625 -0.3825 2.0625 -1.0625 2.0625 Z " fill="#DEDEDE" transform="translate(11.0625,7.9375)"/>
</svg>

